<svg width="920" height="928" viewBox="0 0 920 928" fill="none" xmlns="http://www.w3.org/2000/svg">
<path d="M460 0L500.347 183.382L590.724 18.7953L577.772 206.116L710.857 73.6584L645.656 249.742L810.668 160.145L698.499 310.726L882.069 271.247L732.02 384.128L919.277 397.966L743.504 464L919.277 530.034L732.02 543.872L882.069 656.753L698.499 617.274L810.668 767.855L645.656 678.258L710.857 854.342L577.772 721.884L590.724 909.205L500.347 744.618L460 928L419.653 744.618L329.276 909.205L342.228 721.884L209.143 854.342L274.344 678.258L109.332 767.855L221.501 617.274L37.9308 656.753L187.98 543.872L0.722839 530.034L176.496 464L0.722839 397.966L187.98 384.128L37.9308 271.247L221.501 310.726L109.332 160.145L274.344 249.742L209.143 73.6584L342.228 206.116L329.276 18.7953L419.653 183.382L460 0Z" fill="#51B5C5"/>
</svg>
