<svg width="764" height="770" viewBox="0 0 764 770" fill="none" xmlns="http://www.w3.org/2000/svg">
<path d="M382 770L348.523 617.841L273.533 754.405L284.28 598.977L173.853 708.883L227.954 562.779L91.0364 637.121L184.108 512.178L31.7917 544.935L156.294 451.273L0.91873 439.791L146.765 385L0.91874 330.209L156.294 318.727L31.7917 225.065L184.108 257.822L91.0364 132.879L227.954 207.221L173.853 61.1174L284.28 171.023L273.533 15.5952L348.523 152.159L382 -3.36578e-05L415.477 152.159L490.467 15.5952L479.72 171.023L590.147 61.1174L536.046 207.221L672.964 132.879L579.892 257.822L732.208 225.065L607.706 318.727L763.081 330.209L617.235 385L763.081 439.791L607.706 451.273L732.208 544.935L579.892 512.178L672.964 637.121L536.046 562.779L590.147 708.883L479.72 598.977L490.467 754.405L415.477 617.841L382 770Z" fill="#E1EBEA"/>
</svg>
