<svg width="920" height="929" viewBox="0 0 920 929" fill="none" xmlns="http://www.w3.org/2000/svg">
<path d="M459.774 928.047L419.427 744.666L329.05 909.252L342.002 721.932L208.916 854.389L274.118 678.305L109.106 767.903L221.275 617.321L37.7044 656.8L187.754 543.92L0.496495 530.081L176.27 464.047L0.496506 398.013L187.754 384.175L37.7045 271.295L221.275 310.774L109.106 160.192L274.118 249.789L208.916 73.7057L342.002 206.163L329.05 18.8427L419.427 183.429L459.774 0.0474452L500.121 183.429L590.498 18.8427L577.546 206.163L710.631 73.7058L645.429 249.789L810.442 160.192L698.272 310.774L881.843 271.295L731.794 384.175L919.051 398.013L743.278 464.047L919.051 530.082L731.794 543.92L881.843 656.8L698.272 617.321L810.441 767.903L645.429 678.305L710.631 854.389L577.545 721.932L590.498 909.252L500.12 744.666L459.774 928.047Z" fill="#C5DDE9"/>
</svg>
