<svg width="49" height="49" viewBox="0 0 49 49" fill="none" xmlns="http://www.w3.org/2000/svg">
<path d="M2 0.3125C1.06802 0.3125 0.3125 1.06802 0.3125 2V47C0.3125 47.932 1.06802 48.6875 2 48.6875H47C47.932 48.6875 48.6875 47.932 48.6875 47V2C48.6875 1.06802 47.932 0.3125 47 0.3125H2Z" fill="#ECEFF1"/>
<path d="M2 0.3125C1.06802 0.3125 0.3125 1.06802 0.3125 2V13.25C0.3125 14.182 1.06802 14.9375 2 14.9375H47C47.932 14.9375 48.6875 14.182 48.6875 13.25V2C48.6875 1.06802 47.932 0.3125 47 0.3125H2Z" fill="#5E94FF"/>
<path fill-rule="evenodd" clip-rule="evenodd" d="M5.9375 7.625C5.9375 6.69302 6.69302 5.9375 7.625 5.9375H12.125C13.057 5.9375 13.8125 6.69302 13.8125 7.625C13.8125 8.55698 13.057 9.3125 12.125 9.3125H7.625C6.69302 9.3125 5.9375 8.55698 5.9375 7.625Z" fill="#ECEFF1"/>
<path fill-rule="evenodd" clip-rule="evenodd" d="M14.9375 7.625C14.9375 6.69302 15.693 5.9375 16.625 5.9375H21.125C22.057 5.9375 22.8125 6.69302 22.8125 7.625C22.8125 8.55698 22.057 9.3125 21.125 9.3125H16.625C15.693 9.3125 14.9375 8.55698 14.9375 7.625Z" fill="#ECEFF1"/>
<path fill-rule="evenodd" clip-rule="evenodd" d="M23.9375 7.625C23.9375 6.69302 24.693 5.9375 25.625 5.9375H30.125C31.057 5.9375 31.8125 6.69302 31.8125 7.625C31.8125 8.55698 31.057 9.3125 30.125 9.3125H25.625C24.693 9.3125 23.9375 8.55698 23.9375 7.625Z" fill="#ECEFF1"/>
<path fill-rule="evenodd" clip-rule="evenodd" d="M7.0625 41.25C7.0625 42.182 7.81802 42.9375 8.75 42.9375H26.75C27.682 42.9375 28.4375 42.182 28.4375 41.25C28.4375 40.318 27.682 39.5625 26.75 39.5625H8.75C7.81802 39.5625 7.0625 40.318 7.0625 41.25Z" fill="#8B98A6"/>
<path fill-rule="evenodd" clip-rule="evenodd" d="M7.0625 34.5C7.0625 35.432 7.81802 36.1875 8.75 36.1875H33.5C34.432 36.1875 35.1875 35.432 35.1875 34.5C35.1875 33.568 34.432 32.8125 33.5 32.8125H8.75C7.81802 32.8125 7.0625 33.568 7.0625 34.5Z" fill="#8B98A6"/>
<path fill-rule="evenodd" clip-rule="evenodd" d="M7.0625 27.75C7.0625 28.682 7.81802 29.4375 8.75 29.4375H40.25C41.182 29.4375 41.9375 28.682 41.9375 27.75C41.9375 26.818 41.182 26.0625 40.25 26.0625H8.75C7.81802 26.0625 7.0625 26.818 7.0625 27.75Z" fill="#8B98A6"/>
<path fill-rule="evenodd" clip-rule="evenodd" d="M7.0625 21C7.0625 21.932 7.81802 22.6875 8.75 22.6875H40.25C41.182 22.6875 41.9375 21.932 41.9375 21C41.9375 20.068 41.182 19.3125 40.25 19.3125H8.75C7.81802 19.3125 7.0625 20.068 7.0625 21Z" fill="#8B98A6"/>
</svg>
