<svg width="55" height="55" viewBox="0 0 55 55" fill="none" xmlns="http://www.w3.org/2000/svg">
<path fill-rule="evenodd" clip-rule="evenodd" d="M27.5 35.9375C28.432 35.9375 29.1875 36.693 29.1875 37.625V48.875C29.1875 49.807 28.432 50.5625 27.5 50.5625C26.568 50.5625 25.8125 49.807 25.8125 48.875V37.625C25.8125 36.693 26.568 35.9375 27.5 35.9375Z" fill="#CFD8DC"/>
<path fill-rule="evenodd" clip-rule="evenodd" d="M26.4315 36.319C27.1528 35.7288 28.2159 35.8351 28.8061 36.5565L38.9311 48.9315C39.5213 49.6528 39.415 50.7159 38.6936 51.3061C37.9723 51.8963 36.9092 51.79 36.319 51.0686L26.194 38.6936C25.6038 37.9723 25.7101 36.9092 26.4315 36.319Z" fill="#CFD8DC"/>
<path fill-rule="evenodd" clip-rule="evenodd" d="M28.5685 36.319C27.8472 35.7288 26.7841 35.8351 26.1939 36.5565L16.0689 48.9315C15.4787 49.6528 15.585 50.7159 16.3064 51.3061C17.0277 51.8963 18.0908 51.79 18.681 51.0686L28.806 38.6936C29.3962 37.9723 29.2899 36.9092 28.5685 36.319Z" fill="#CFD8DC"/>
<path d="M9.5 3.3125C8.56802 3.3125 7.8125 4.06802 7.8125 5V37.625C7.8125 38.557 8.56802 39.3125 9.5 39.3125H45.5C46.432 39.3125 47.1875 38.557 47.1875 37.625V5C47.1875 4.06802 46.432 3.3125 45.5 3.3125H9.5Z" fill="#E7EEFF"/>
<path fill-rule="evenodd" clip-rule="evenodd" d="M3.3125 5C3.3125 4.06802 4.06802 3.3125 5 3.3125H50C50.932 3.3125 51.6875 4.06802 51.6875 5C51.6875 5.93198 50.932 6.6875 50 6.6875H5C4.06802 6.6875 3.3125 5.93198 3.3125 5Z" fill="#5E94FF"/>
<path fill-rule="evenodd" clip-rule="evenodd" d="M3.3125 37.625C3.3125 36.693 4.06802 35.9375 5 35.9375H50C50.932 35.9375 51.6875 36.693 51.6875 37.625C51.6875 38.557 50.932 39.3125 50 39.3125H5C4.06802 39.3125 3.3125 38.557 3.3125 37.625Z" fill="#5E94FF"/>
<path fill-rule="evenodd" clip-rule="evenodd" d="M36.4961 14.9888C37.1927 15.6079 37.2554 16.6746 36.6362 17.3711L27.6363 27.4961C27.3275 27.8435 26.8891 28.0481 26.4246 28.0618C25.96 28.0754 25.5104 27.8969 25.1818 27.5683L20.6818 23.0683C20.0227 22.4092 20.0227 21.3408 20.6818 20.6818C21.3408 20.0228 22.4092 20.0228 23.0682 20.6818L26.3027 23.9163L34.1137 15.1289C34.7329 14.4323 35.7995 14.3696 36.4961 14.9888Z" fill="#8BC94D"/>
</svg>
