<svg width="55" height="55" viewBox="0 0 55 55" fill="none" xmlns="http://www.w3.org/2000/svg">
<path d="M11.75 5.5625C8.33274 5.5625 5.5625 8.33274 5.5625 11.75V36.5C5.5625 39.9173 8.33274 42.6875 11.75 42.6875H36.5C39.9173 42.6875 42.6875 39.9173 42.6875 36.5V11.75C42.6875 8.33274 39.9173 5.5625 36.5 5.5625H11.75Z" fill="#5E94FF"/>
<path fill-rule="evenodd" clip-rule="evenodd" d="M46.625 11.1875C47.557 11.1875 48.3125 11.943 48.3125 12.875V42.125C48.3125 45.5423 45.5423 48.3125 42.125 48.3125H12.875C11.943 48.3125 11.1875 47.557 11.1875 46.625C11.1875 45.693 11.943 44.9375 12.875 44.9375H42.125C43.6783 44.9375 44.9375 43.6783 44.9375 42.125V12.875C44.9375 11.943 45.693 11.1875 46.625 11.1875Z" fill="#4DC4FF"/>
<path d="M35.9375 5.5625H23.5625V20.75C23.5625 21.3348 23.8653 21.878 24.3628 22.1855C24.8603 22.4929 25.4816 22.5209 26.0047 22.2593L29.75 20.3867L33.4953 22.2593C34.0184 22.5209 34.6397 22.4929 35.1372 22.1855C35.6347 21.878 35.9375 21.3348 35.9375 20.75V5.5625Z" fill="#E7EEFF"/>
</svg>
