<svg width="24" height="24" viewBox="0 0 24 24" fill="none" xmlns="http://www.w3.org/2000/svg">
<rect width="24" height="24" rx="5" fill="#ECECEC"/>
<path d="M18.9866 6.25092C19.0312 6.05349 18.9624 5.84762 18.8081 5.71663C18.6538 5.58564 18.4395 5.5512 18.2519 5.62725L4.83947 11.0647C4.61691 11.1549 4.4799 11.3805 4.50241 11.6196C4.52492 11.8587 4.70163 12.0547 4.93712 12.1018L8.237 12.7618L9.59591 17.518C9.65633 17.7294 9.83818 17.8837 10.0567 17.9088C10.2752 17.9339 10.4873 17.8249 10.5941 17.6327L12.0905 14.939L15.5744 17.7894C15.7202 17.9088 15.9175 17.9441 16.0957 17.8827C16.2739 17.8214 16.4076 17.6722 16.4491 17.4884L18.9866 6.25092Z" fill="#B9BDBF"/>
<path fill-rule="evenodd" clip-rule="evenodd" d="M18.9847 6.25713C18.9662 6.33512 18.9302 6.40994 18.8766 6.47548L12.4745 14.3002L12.1268 14.969L12.0901 14.939L10.5936 17.6327C10.4868 17.8249 10.2747 17.9339 10.0562 17.9088C9.83773 17.8837 9.65588 17.7294 9.59546 17.518L8.23655 12.7618L7.27441 12.5694L8.36666 11.8412L8.37856 11.8335L18.166 5.67102C18.1913 5.65509 18.2175 5.64147 18.2443 5.63014L18.2515 5.62725C18.3304 5.59524 18.4141 5.5828 18.4961 5.5889C18.5213 5.59079 18.5465 5.59444 18.5712 5.59981C18.6569 5.61843 18.7383 5.65779 18.8076 5.71663C18.8165 5.72413 18.825 5.73187 18.8333 5.73984C18.8349 5.74139 18.8365 5.74295 18.8381 5.74452C18.8467 5.75308 18.8551 5.76197 18.8633 5.77119C18.8767 5.78641 18.8892 5.8022 18.9006 5.81847C18.9877 5.94237 19.0204 6.09914 18.9861 6.25092L18.9847 6.25713Z" fill="#858D92"/>
</svg>
