<svg width="147" height="25" viewBox="0 0 147 25" fill="none" xmlns="http://www.w3.org/2000/svg">
<path d="M9.55711 7.46589C9.75666 7.43747 9.96006 7.4547 10.152 7.51629C10.3439 7.57788 10.5194 7.68221 10.6651 7.82144C10.8083 7.95997 10.9175 8.12976 10.9841 8.31753C11.0507 8.50529 11.073 8.70593 11.0492 8.90373C11.0492 9.94651 10.2241 11.8116 9.77944 11.8116C9.33477 11.8116 9.23922 11.5304 8.47758 11.5304C7.9261 11.5748 7.39137 11.7411 6.91203 12.0174C6.43502 12.2924 6.0259 12.671 5.7149 13.1254C5.36577 17.2212 4.65741 23.1306 4.65741 23.1306C4.5931 23.7866 3.89485 24.1724 2.65638 24.1724H1.76795C0.498233 24.1724 -0.0419922 23.7039 -0.0419922 23.2032L1.01641 12.9481C1.11196 12.0413 1.1432 11.2594 1.1432 10.7284C1.1432 9.97775 1.0798 9.44579 1.0798 8.97723C1.0798 8.28909 2.69956 7.85176 4.76307 7.85176C5.62026 7.85176 5.68366 8.75857 5.82147 9.9364C6.17412 9.23809 6.70301 8.64397 7.35578 8.21283C8.01324 7.77894 8.77136 7.5217 9.55711 7.46589ZM23.241 19.2847C23.3678 19.2847 23.4945 19.2847 23.4945 19.722C23.454 20.5284 23.3693 21.332 23.241 22.1291C22.7329 23.85 19.4631 24.3185 17.7165 24.3185C12.5412 24.3185 10.2232 21.6606 10.2232 17.4398C10.2232 10.2175 14.2565 7.46589 18.955 7.46589C24.1303 7.46589 25.1143 10.3737 25.1143 11.9999C25.1143 16.1683 21.431 17.721 18.288 17.721C17.1835 17.7283 16.0799 17.6552 14.986 17.5023C15.1128 20.0656 16.4468 20.6288 18.3192 20.6288C20.8596 20.6601 22.8918 19.2847 23.241 19.2847ZM15.2083 14.6266H16.7325C19.7166 14.6266 20.5417 13.5002 20.5417 12.5411C20.5417 11.5828 19.7488 11.072 18.6371 11.072C16.6692 11.1243 15.653 12.6871 15.2083 14.6257V14.6266ZM27.4002 11.3742H26.712C26.1405 11.3742 25.887 11.0306 25.887 10.2488C25.887 8.81002 26.1718 7.71579 27.0933 7.71579H27.7281L28.046 4.74547C28.1094 4.08948 28.8077 3.7036 30.0462 3.7036H30.9456C32.2153 3.7036 32.7555 4.17217 32.7555 4.67289L32.4377 7.67444H34.311C34.7557 7.67444 34.8191 7.86187 34.8191 8.29919C34.8191 9.45682 34.2154 11.3329 32.9779 11.3329H32.0555C32.0555 11.3329 31.167 19.4932 31.167 19.587C31.167 20.3063 31.4518 20.6288 32.1198 20.6288C32.5267 20.6029 32.9305 20.5401 33.3261 20.4414C33.5163 20.4414 33.5797 20.5039 33.5797 20.785C33.5464 21.4145 33.4721 22.0412 33.3573 22.6611C33.1671 23.8187 31.6751 24.2873 30.5643 24.2873C28.024 24.2873 26.4364 23.0369 26.4364 20.118C26.4786 19.4721 27.3992 11.3742 27.3992 11.3742H27.4002ZM44.8307 21.9739C44.3518 22.6883 43.7051 23.2744 42.9472 23.6809C42.1852 24.0903 41.3353 24.3091 40.4703 24.3185C37.3906 24.3185 35.3271 21.9426 35.3271 17.5335C35.3271 11.5304 38.2157 7.46589 42.3749 7.46589C43.8179 7.51785 45.189 8.10929 46.2171 9.12331C46.5662 7.99784 46.6617 7.68455 48.2806 7.65331H48.6619C49.9316 7.65331 50.503 7.93537 50.503 8.43517C50.503 8.56012 49.328 19.0973 49.328 19.6283C49.328 20.3477 49.6137 20.6711 50.2807 20.6711C50.5931 20.6417 50.9027 20.5792 51.2013 20.4837C51.3924 20.4837 51.4558 20.5452 51.4558 20.8273C51.4223 21.4568 51.348 22.0834 51.2334 22.7034C51.0423 23.8601 49.5503 24.3295 48.4395 24.3295C46.5451 24.3185 45.2754 23.6313 44.8307 21.9739ZM44.7664 18.7527C45.2754 13.1879 45.1476 14.1571 45.5932 11.9999C45.0201 11.4598 44.2631 11.1577 43.4755 11.1547C41.3596 11.1547 40.1101 13.2402 40.1101 17.2827C40.1101 19.4418 40.8084 20.5663 42.2269 20.5663C42.7688 20.4957 43.285 20.2928 43.73 19.9756C44.1729 19.6595 44.5293 19.2387 44.7673 18.7536L44.7664 18.7527ZM54.0384 8.68507C54.1018 8.02908 54.8 7.6432 56.0385 7.6432H56.9269C58.1976 7.6432 58.7369 8.11177 58.7369 8.61249C58.7369 8.61249 57.5627 19.3058 57.5627 19.6182C57.5627 20.3376 57.8475 20.6601 58.5145 20.6601C58.8269 20.6307 59.1365 20.5682 59.4351 20.4726C59.6262 20.4726 59.6896 20.5351 59.6896 20.8162C59.6564 21.4458 59.5821 22.0725 59.4673 22.6923C59.2771 23.85 57.7841 24.3185 56.6734 24.3185C54.1964 24.3185 52.8312 23.1609 52.8312 20.3477C52.8312 19.4721 54.0384 8.68507 54.0384 8.68507ZM59.2128 4.05824C59.1494 4.71423 58.4511 5.1001 57.2127 5.1001H56.3454C55.0747 5.1001 54.5354 4.63154 54.5354 4.13082L54.8212 1.56751C54.8855 0.910605 55.5837 0.52473 56.8213 0.52473H57.7106C58.9803 0.52473 59.5206 0.993292 59.5206 1.49401L59.2128 4.05732V4.05824ZM63.372 1.39019C63.4675 0.764523 63.8488 0.452148 65.023 0.452148H66.5481C67.6901 0.452148 68.0392 0.795761 68.0392 1.29648C68.0392 1.29648 66.1025 19.4932 66.1025 19.6182C66.1025 20.3376 66.3882 20.6601 67.0552 20.6601C67.3676 20.6307 67.6772 20.5682 67.9758 20.4726C68.1669 20.4726 68.2303 20.5351 68.2303 20.8162C68.1971 21.4458 68.1228 22.0725 68.008 22.6923C67.8169 23.85 66.3248 24.3185 65.2141 24.3185C62.7371 24.3185 61.3719 23.1609 61.3719 20.3477C61.3719 19.3784 63.372 1.39019 63.372 1.39019Z" fill="#01284D"/>
<path d="M73.0558 24.1309H72.929C72.0718 24.1309 71.7227 23.8498 71.7227 23.474C71.7227 23.474 73.1192 11.2804 73.1192 9.77912V8.73725C73.1192 8.04911 74.6755 8.01787 74.8979 8.01787C75.1202 8.01787 75.7229 8.11159 75.7229 10.3634C75.7312 10.4673 75.7312 10.572 75.7229 10.6758C76.7813 8.73725 78.3266 7.54931 79.9565 7.54931C80.5904 7.54931 81.5441 7.76797 81.5441 8.73725C81.5441 9.51819 81.0039 10.4884 80.6235 10.4884C80.2422 10.4884 80.2101 10.1439 79.385 10.1439C78.2099 10.1439 76.4634 11.1131 75.3526 15.084C74.9392 19.0861 74.4633 23.4216 74.4633 23.4216C74.3365 23.881 73.8817 24.1309 73.0558 24.1309ZM89.28 7.52818C93.4391 7.52818 95.6294 9.90499 95.6294 14.3131C95.6294 20.7848 92.5186 24.2559 87.4379 24.2559C83.1197 24.2559 80.8661 21.9112 80.8661 17.5334C80.8982 12.3424 83.3109 7.52818 89.28 7.52818ZM92.8989 14.3756C92.8989 11.2491 91.6292 9.77912 88.9299 9.77912C85.4387 9.77912 83.6388 12.7494 83.6388 17.4397C83.6388 20.5662 84.9407 22.0049 87.6391 22.0049C91.0256 22.0049 92.8989 19.347 92.8989 14.3756ZM108.488 22.8171C108.234 24.0684 104.964 24.2559 103.98 24.2559C99.5029 24.2559 97.1215 22.3485 97.1215 17.6896C97.1215 12.3121 99.4083 7.52818 105.504 7.52818C108.393 7.52818 109.949 8.49746 109.949 9.15437C109.949 9.56046 109.25 10.7172 108.711 10.7172C107.657 10.0561 106.429 9.72938 105.186 9.78004C102.233 9.78004 99.8943 11.8638 99.8943 17.5021C99.8943 20.6286 101.228 22.004 104.212 22.004C105.674 21.9659 107.113 21.6367 108.446 21.0356C108.573 21.0356 108.636 21.0356 108.636 21.4105C108.621 21.8827 108.572 22.3531 108.488 22.818V22.8171ZM120.998 8.09137C121.497 7.74069 122.107 7.5848 122.712 7.65313H122.839C123.57 7.65313 123.898 7.84055 123.898 8.0289C123.852 8.2857 123.717 8.51806 123.516 8.68489L116.595 15.5636L122.945 23.1929C123.058 23.3149 123.136 23.4665 123.167 23.6302C123.167 24.0372 122.786 24.1309 121.738 24.1309H121.612C120.913 24.1309 120.214 24.1309 119.929 23.7239L113.706 16.3142H113.579L112.817 23.4437C112.753 23.881 112.373 24.1309 111.483 24.1309H111.378C110.457 24.1309 110.171 23.8801 110.171 23.4428L112.552 1.24393C112.552 0.805686 112.965 0.555786 113.886 0.555786H114.013C114.933 0.555786 115.219 0.805686 115.219 1.24393L113.727 15.22H113.854L120.998 8.09046V8.09137ZM136.269 20.4725C136.396 20.4725 136.492 20.4724 136.492 20.8482C136.473 21.3195 136.42 21.7899 136.333 22.2539C136.047 23.7239 132.492 24.2559 131.126 24.2559C127.951 24.2559 123.951 23.3803 123.951 17.7833C123.951 12.1872 126.459 7.52818 132.682 7.52818C136.682 7.52818 137.973 10.0915 137.973 11.6975C137.973 16.0432 133.74 17.4185 129.401 17.4185C128.486 17.4298 127.572 17.3566 126.67 17.1999V17.5122C126.67 20.9833 128.512 22.015 131.305 22.015C134.099 22.015 135.825 20.4725 136.269 20.4725ZM126.872 15.1575H129.125C130.047 15.1575 135.253 15.1575 135.253 11.9373C135.253 10.7796 134.195 9.77912 132.396 9.77912C128.713 9.72767 127.253 12.2496 126.872 15.1575ZM141.508 4.43291C141.572 3.93219 141.984 3.74477 142.81 3.74477H142.937C143.825 3.74477 144.143 3.96435 144.143 4.43291L143.794 7.7156H146.492C146.874 7.7156 147 7.87179 147 8.31004C147 8.43499 146.778 9.96746 145.572 9.96746H143.54C143.54 9.96746 142.482 19.5969 142.482 20.2225C142.482 21.6604 143.18 22.0049 144.005 22.0049C144.489 21.9992 144.97 21.9253 145.434 21.7853C145.53 21.7853 145.656 21.8487 145.656 22.0674C145.636 22.456 145.583 22.8437 145.497 23.2241C145.307 24.005 144.26 24.266 143.381 24.266C141.953 24.266 139.825 23.8286 139.825 20.8271C139.825 19.889 140.883 9.97665 140.883 9.97665H139.296C138.852 9.97665 138.756 9.63395 138.756 9.13324C138.756 8.63344 138.757 7.72663 139.55 7.72663H141.138L141.508 4.43291Z" fill="#16AADB"/>
</svg>
