<svg width="195" height="20" viewBox="0 0 195 20" fill="none" xmlns="http://www.w3.org/2000/svg">
<path d="M8.277 15.3666C10.3919 15.3666 12.1152 14.782 13.3946 13.6129C14.674 12.4159 15.4051 10.8849 15.5617 8.96408H10.9402C10.653 10.2168 9.66084 10.9405 8.277 10.9405C6.47541 10.9405 5.37879 9.63224 5.37879 7.71147C5.37879 5.79075 6.47541 4.48242 8.277 4.48242C9.66084 4.48242 10.653 5.20619 10.9402 6.45883H15.5617C15.3789 4.53809 14.6478 2.97925 13.3685 1.81011C12.0891 0.640962 10.3919 0.0563965 8.277 0.0563965C5.90099 0.0563965 4.02106 0.780146 2.68944 2.22766C1.35784 3.64733 0.705078 5.48454 0.705078 7.71147C0.731188 9.93842 1.38394 11.7757 2.71556 13.2232C4.04717 14.6428 5.90099 15.3666 8.277 15.3666ZM26.4769 0.0563965C24.2054 0.0563965 22.9521 1.16986 21.986 3.17411L22.3515 2.28333L22.1688 0.473949H17.6256V14.9489H22.3515V7.37744C22.3515 5.40104 23.1609 4.42675 24.7538 4.42675C26.2419 4.42675 26.9992 5.34536 26.9992 7.18258V7.54446H31.3856V6.34749C31.3856 2.45034 29.7407 0.0563965 26.4769 0.0563965ZM52.4876 0.0842384C50.1637 0.0842384 48.5188 1.03069 47.5265 2.95141C46.6911 1.03069 45.1506 0.0842384 42.9312 0.0842384C40.503 0.0842384 39.093 1.25337 38.0747 3.25761L38.4664 2.28333L38.2837 0.473949H33.7404V14.9489H38.4664V7.40528C38.4664 5.51238 39.3802 4.42675 41.0251 4.42675C42.6178 4.42675 43.4796 5.51238 43.4796 7.40528V14.9489H48.2055V7.40528C48.2055 5.51238 49.1192 4.42675 50.7643 4.42675C52.357 4.42675 53.2186 5.51238 53.2186 7.40528V14.9489H57.9445V6.79287C57.9445 2.47819 56.143 0.0842384 52.4876 0.0842384ZM99.1442 13.9191L100.319 12.2767C100.841 12.3045 101.259 12.3324 101.546 12.3324C106.116 12.3324 108.466 10.1054 108.466 6.23613C108.466 5.5959 108.413 5.01132 108.283 4.51026L110.58 0.473949H106.351L105.724 1.4204L105.776 1.50391C104.758 0.52962 103.296 0.0563965 101.364 0.0563965C96.9771 0.0563965 94.6272 2.42251 94.6272 6.23613C94.6272 8.37955 95.3322 9.96619 96.7159 10.9962L94.7054 13.9191L95.306 17.6492H103.896C104.758 17.6492 104.993 18.0111 104.81 18.9854L104.784 19.208H108.335C109.144 18.5957 109.536 17.7049 109.536 16.5636C109.536 14.8933 108.544 13.9191 106.638 13.9191H99.1442ZM99.0397 6.2083C99.0397 4.67728 99.8753 3.9257 101.546 3.9257C103.217 3.9257 104.053 4.67728 104.053 6.2083C104.053 7.79499 103.217 8.57442 101.546 8.57442C99.8753 8.57442 99.0397 7.79499 99.0397 6.2083ZM120.876 0.0563965C118.605 0.0563965 117.351 1.16986 116.385 3.17411L116.751 2.28333L116.568 0.473949H112.025V14.9489H116.751V7.37744C116.751 5.40104 117.56 4.42675 119.153 4.42675C120.641 4.42675 121.398 5.34536 121.398 7.18258V7.54446H125.785V6.34749C125.785 2.45034 124.14 0.0563965 120.876 0.0563965ZM135.315 15.3666C137.665 15.3666 139.519 14.6428 140.877 13.2232C142.26 11.7757 142.939 9.93842 142.939 7.71147C142.939 5.48454 142.26 3.64733 140.877 2.22766C139.519 0.780146 137.665 0.0563965 135.315 0.0563965C132.991 0.0563965 131.138 0.780146 129.754 2.22766C128.369 3.67516 127.691 5.51238 127.691 7.71147C127.691 9.91053 128.369 11.7478 129.754 13.1953C131.138 14.6428 132.991 15.3666 135.315 15.3666ZM133.122 10.0497C132.573 9.43737 132.313 8.6579 132.313 7.71147C132.313 6.76503 132.573 5.98561 133.122 5.40104C133.67 4.78863 134.401 4.48242 135.315 4.48242C136.229 4.48242 136.96 4.78863 137.508 5.40104C138.056 5.98561 138.318 6.76503 138.318 7.71147C138.318 8.6579 138.056 9.43737 137.508 10.0497C136.96 10.6343 136.229 10.9405 135.315 10.9405C134.401 10.9405 133.67 10.6343 133.122 10.0497ZM155.229 7.82283C155.229 9.74355 154.315 10.9962 152.357 10.9962C150.608 10.9962 149.719 9.93842 149.719 7.79499V0.473949H145.02V8.71355C145.02 12.9447 146.822 15.3666 150.555 15.3666C153.192 15.3666 154.603 14.1974 155.647 12.1097L155.229 13.1396L155.411 14.9489H159.954V0.473949H155.229V7.82283ZM171.568 0.0842384C169.479 0.0842384 167.807 1.14203 166.581 3.25761L167.39 1.81011L167.285 0.473949H162.665V18.9575H167.39V13.418C168.383 14.7263 169.766 15.3666 171.568 15.3666C173.553 15.3666 175.145 14.6428 176.346 13.1675C177.574 11.6921 178.173 9.88276 178.173 7.71147C178.173 5.56805 177.574 3.75867 176.346 2.28333C175.145 0.807989 173.553 0.0842384 171.568 0.0842384ZM170.445 10.9962C168.565 10.9962 167.337 9.63224 167.337 7.71147C167.337 5.79075 168.565 4.42675 170.445 4.42675C172.299 4.42675 173.525 5.79075 173.525 7.71147C173.525 9.63224 172.299 10.9962 170.445 10.9962Z" fill="black"/>
<path d="M89.3465 9.88278V5.48456H64.2285V9.88278H89.3465Z" fill="#DC1327"/>
<path d="M194.186 5.33516C194.186 -1.48729 184.649 -1.48729 184.649 5.33516C184.649 12.1872 194.186 12.1429 194.186 5.33516ZM190.604 5.97153C191.175 5.77915 191.452 5.18717 191.452 4.58041C191.452 3.50005 190.715 2.90809 189.758 2.90809H187.76V7.71784H188.911V6.14912H189.48L190.382 7.71784H191.562V7.49586L190.604 5.97153ZM188.911 3.97363H189.647C190.077 3.97363 190.299 4.22522 190.299 4.56561C190.299 4.90599 190.035 5.15758 189.647 5.15758H188.911V3.97363ZM186.066 5.33516C186.066 0.244224 192.784 0.244224 192.784 5.33516C192.784 10.4113 186.066 10.4409 186.066 5.33516Z" fill="black"/>
</svg>
