<svg width="920" height="922" viewBox="0 0 920 922" fill="none" xmlns="http://www.w3.org/2000/svg">
<path d="M460 922L419.653 738.618L329.276 903.205L342.228 715.884L209.143 848.342L274.344 672.258L109.332 761.855L221.501 611.274L37.9308 650.753L187.98 537.872L0.722874 524.034L176.496 458L0.722886 391.966L187.98 378.128L37.9308 265.247L221.501 304.726L109.332 154.145L274.344 243.742L209.143 67.6584L342.228 200.116L329.276 12.7954L419.653 177.382L460 -5.99992L500.347 177.382L590.724 12.7954L577.772 200.116L710.857 67.6584L645.656 243.742L810.668 154.145L698.499 304.726L882.069 265.248L732.02 378.128L919.277 391.966L743.504 458L919.277 524.034L732.02 537.872L882.069 650.753L698.499 611.274L810.668 761.855L645.656 672.258L710.857 848.342L577.772 715.884L590.724 903.205L500.347 738.618L460 922Z" fill="#C2DFE6"/>
</svg>
