<svg width="55" height="55" viewBox="0 0 55 55" fill="none" xmlns="http://www.w3.org/2000/svg">
<path d="M7.25 12.3125C5.07538 12.3125 3.3125 14.0754 3.3125 16.25V41C3.3125 43.1746 5.07538 44.9375 7.25 44.9375H47.75C49.9246 44.9375 51.6875 43.1746 51.6875 41V16.25C51.6875 14.0754 49.9246 12.3125 47.75 12.3125H7.25Z" fill="#5E94FF"/>
<path fill-rule="evenodd" clip-rule="evenodd" d="M10.2851 19.9126C10.7475 19.1034 11.7783 18.8222 12.5875 19.2846L27.5003 27.8062L42.4131 19.2846C43.2222 18.8222 44.2531 19.1034 44.7155 19.9126C45.1778 20.7218 44.8967 21.7526 44.0875 22.215L28.3375 31.215C27.8187 31.5114 27.1818 31.5114 26.6631 31.215L10.9131 22.215C10.1039 21.7526 9.82274 20.7218 10.2851 19.9126Z" fill="#ECEFF1"/>
</svg>
