<svg width="55" height="55" viewBox="0 0 55 55" fill="none" xmlns="http://www.w3.org/2000/svg">
<path d="M43.25 19.0625C39.8327 19.0625 37.0625 21.8327 37.0625 25.25C37.0625 28.6673 39.8327 31.4375 43.25 31.4375C46.6673 31.4375 49.4375 28.6673 49.4375 25.25C49.4375 21.8327 46.6673 19.0625 43.25 19.0625Z" fill="#4DC4FF"/>
<path d="M11.75 19.0625C8.33274 19.0625 5.5625 21.8327 5.5625 25.25C5.5625 28.6673 8.33274 31.4375 11.75 31.4375C15.1673 31.4375 17.9375 28.6673 17.9375 25.25C17.9375 21.8327 15.1673 19.0625 11.75 19.0625Z" fill="#4DC4FF"/>
<path d="M43.25 28.0625C38.5901 28.0625 34.8125 31.8401 34.8125 36.5V38.75C34.8125 40.9246 36.5754 42.6875 38.75 42.6875H47.75C49.9246 42.6875 51.6875 40.9246 51.6875 38.75V36.5C51.6875 31.8401 47.9099 28.0625 43.25 28.0625Z" fill="#4DC4FF"/>
<path d="M11.75 28.0625C7.0901 28.0625 3.3125 31.8401 3.3125 36.5V38.75C3.3125 40.9246 5.07538 42.6875 7.25 42.6875H16.25C18.4246 42.6875 20.1875 40.9246 20.1875 38.75V36.5C20.1875 31.8401 16.4099 28.0625 11.75 28.0625Z" fill="#4DC4FF"/>
<path d="M27.5 12.3125C23.4614 12.3125 20.1875 15.5864 20.1875 19.625C20.1875 23.6636 23.4614 26.9375 27.5 26.9375C31.5386 26.9375 34.8125 23.6636 34.8125 19.625C34.8125 15.5864 31.5386 12.3125 27.5 12.3125Z" fill="#5E94FF"/>
<path d="M25.25 23.5625C20.5901 23.5625 16.8125 27.3401 16.8125 32V38.75C16.8125 40.9246 18.5754 42.6875 20.75 42.6875H34.25C36.4246 42.6875 38.1875 40.9246 38.1875 38.75V32C38.1875 27.3401 34.4099 23.5625 29.75 23.5625H25.25Z" fill="#5E94FF"/>
</svg>
