<svg width="55" height="55" viewBox="0 0 55 55" fill="none" xmlns="http://www.w3.org/2000/svg">
<path fill-rule="evenodd" clip-rule="evenodd" d="M40.4375 12.875C40.4375 11.943 41.193 11.1875 42.125 11.1875H47.75C48.682 11.1875 49.4375 11.943 49.4375 12.875C49.4375 13.807 48.682 14.5625 47.75 14.5625H42.125C41.193 14.5625 40.4375 13.807 40.4375 12.875Z" fill="#4DC4FF"/>
<path fill-rule="evenodd" clip-rule="evenodd" d="M40.4375 18.5C40.4375 17.568 41.193 16.8125 42.125 16.8125H47.75C48.682 16.8125 49.4375 17.568 49.4375 18.5C49.4375 19.432 48.682 20.1875 47.75 20.1875H42.125C41.193 20.1875 40.4375 19.432 40.4375 18.5Z" fill="#4DC4FF"/>
<path fill-rule="evenodd" clip-rule="evenodd" d="M40.4375 24.125C40.4375 23.193 41.193 22.4375 42.125 22.4375H47.75C48.682 22.4375 49.4375 23.193 49.4375 24.125C49.4375 25.057 48.682 25.8125 47.75 25.8125H42.125C41.193 25.8125 40.4375 25.057 40.4375 24.125Z" fill="#4DC4FF"/>
<path d="M12.875 3.3125C11.943 3.3125 11.1875 4.06802 11.1875 5V45.5C11.1875 46.432 11.943 47.1875 12.875 47.1875H37.625C41.0423 47.1875 43.8125 44.4173 43.8125 41V9.5C43.8125 6.08274 41.0423 3.3125 37.625 3.3125H12.875Z" fill="#5E94FF"/>
<path fill-rule="evenodd" clip-rule="evenodd" d="M22.4375 3.3125V47.1875H19.0625V3.3125H22.4375Z" fill="#4DC4FF"/>
<path fill-rule="evenodd" clip-rule="evenodd" d="M20.75 42.6875C21.682 42.6875 22.4375 43.443 22.4375 44.375V50C22.4375 50.932 21.682 51.6875 20.75 51.6875C19.818 51.6875 19.0625 50.932 19.0625 50V44.375C19.0625 43.443 19.818 42.6875 20.75 42.6875Z" fill="#4DC4FF"/>
</svg>
