<svg width="130" height="39" viewBox="0 0 130 39" fill="none" xmlns="http://www.w3.org/2000/svg">
<path d="M17.2291 3.06808V9.82496L10.1612 13.3643H10.098L3.53493 10.1467C2.11504 9.47102 2.08348 7.41178 3.50338 6.70392L14.0107 1.07318C15.4937 0.30097 17.2291 1.36277 17.2291 3.06808Z" fill="url(#paint0_linear_75_784)"/>
<path d="M0 36.0796C0 37.7206 1.67233 38.8145 3.12379 38.1067L16.0291 32.4759C16.7548 32.1541 17.1335 31.4463 17.1651 30.7706V21.6006C17.1651 22.3084 16.7864 22.9841 16.0291 23.3059L0 30.4811V36.0796Z" fill="url(#paint1_linear_75_784)"/>
<path d="M14.0728 21.6328L0 27.3922V10.5C0 11.5296 1.98787 12.4305 2.87136 12.8488L13.6941 17.9647L14.1044 18.1578C15.5873 18.8656 15.5559 20.9893 14.0728 21.6328Z" fill="url(#paint2_linear_75_784)"/>
<path d="M43.2587 11.4009L41.4286 13.8463C40.6398 12.7845 39.6615 12.2697 38.4941 12.2697C37.6422 12.2697 37.0111 12.4949 36.6009 12.9132C36.1907 13.3315 36.0014 13.8463 36.0014 14.4255C36.0014 14.9081 36.1907 15.3264 36.5694 15.6804C36.8534 15.9699 37.5791 16.2916 38.7466 16.7421C40.5451 17.3534 41.7441 17.997 42.4067 18.5761C43.448 19.5093 43.9529 20.7963 43.9529 22.4372C43.9529 24.2391 43.3849 25.687 42.2174 26.8131C41.0499 27.9393 39.5354 28.4862 37.7053 28.4862C35.1179 28.4862 33.0354 27.3279 31.4893 25.0112L33.7926 22.7911C34.2029 23.6277 34.7393 24.2391 35.4334 24.6251C36.1276 25.0434 36.8534 25.2365 37.5791 25.2365C38.3994 25.2365 39.0621 25.0112 39.567 24.5287C40.1034 24.046 40.3558 23.4346 40.3558 22.6946C40.3558 22.0511 40.1349 21.5041 39.6615 21.0536C39.2198 20.6354 38.3048 20.1849 36.8849 19.7022C35.5597 19.2518 34.5499 18.7048 33.8873 18.0935C32.9407 17.2569 32.4674 16.0986 32.4674 14.6829C32.4674 13.2028 32.9723 11.9158 33.9504 10.854C34.9286 9.79215 36.38 9.27737 38.2417 9.27737C40.1665 9.2452 41.8703 9.98523 43.2587 11.4009Z" fill="#212D32"/>
<path d="M56.0062 17.6755V16.131H59.2878V28.0681H56.0062V26.5237C55.1228 27.8107 53.9237 28.4543 52.4092 28.4543C50.6422 28.4543 49.2223 27.8429 48.0863 26.6202C46.982 25.3975 46.4141 23.8854 46.4141 22.1157C46.4141 20.3138 46.9505 18.8016 48.0233 17.6111C49.0961 16.3884 50.516 15.777 52.2198 15.777C53.9237 15.7449 55.1858 16.3884 56.0062 17.6755ZM55.4067 19.6703C54.8073 19.0268 54.0184 18.7051 53.0718 18.7051C52.1252 18.7051 51.3679 19.0268 50.7369 19.6703C50.1373 20.3138 49.8218 21.1182 49.8218 22.0835C49.8218 23.0487 50.1373 23.8532 50.7369 24.4966C51.3364 25.1402 52.1252 25.4619 53.0718 25.4619C54.0184 25.4619 54.7757 25.1402 55.4067 24.4966C56.0062 23.8532 56.3218 23.0487 56.3218 22.0835C56.3218 21.1182 56.0062 20.3138 55.4067 19.6703Z" fill="#212D32"/>
<path d="M63.8942 12.4951C63.5155 12.1089 63.3262 11.6264 63.3262 11.0793C63.3262 10.5324 63.5155 10.0497 63.8942 9.66364C64.2728 9.27753 64.7461 9.08447 65.2825 9.08447C65.8189 9.08447 66.2922 9.27753 66.6708 9.66364C67.0495 10.0497 67.2388 10.5324 67.2388 11.0793C67.2388 11.6264 67.0495 12.1089 66.6708 12.4951C66.2922 12.8812 65.8189 13.0743 65.2825 13.0743C64.7461 13.0743 64.2728 12.8812 63.8942 12.4951ZM63.6102 17.4501L66.8917 16.1309V28.0681H63.6102V17.4501Z" fill="#212D32"/>
<path d="M71.2471 8.73082L74.5286 7.41162V28.0362H71.2471V8.73082Z" fill="#212D32"/>
<path d="M81.5335 26.5235V34.4708L78.252 35.79V16.1307H81.5335V17.6752C82.4485 16.3881 83.7106 15.7446 85.3514 15.7446C87.0553 15.7446 88.4439 16.356 89.5161 17.5465C90.5893 18.737 91.1259 20.2492 91.1259 22.0832C91.1259 23.9172 90.5893 25.4295 89.4847 26.6522C88.3802 27.8427 86.9922 28.454 85.2884 28.454C83.6791 28.4218 82.4485 27.8105 81.5335 26.5235ZM86.7713 19.67C86.1718 19.0266 85.383 18.7048 84.4364 18.7048C83.4898 18.7048 82.7325 19.0266 82.1014 19.67C81.502 20.3136 81.1864 21.1179 81.1864 22.0832C81.1864 23.0484 81.502 23.8529 82.1014 24.4964C82.7009 25.1399 83.4898 25.4616 84.4364 25.4616C85.383 25.4616 86.1403 25.1399 86.7713 24.4964C87.3707 23.8529 87.6866 23.0484 87.6866 22.0832C87.6866 21.1179 87.3707 20.3136 86.7713 19.67Z" fill="#212D32"/>
<path d="M94.1543 8.73082L97.4357 7.41162V28.0362H94.1543V8.73082Z" fill="#212D32"/>
<path d="M110.12 17.6755V16.131H113.402V28.0681H110.12V26.5237C109.237 27.8107 108.038 28.4543 106.523 28.4543C104.756 28.4543 103.336 27.8429 102.2 26.6202C101.096 25.3975 100.528 23.8854 100.528 22.1157C100.528 20.3138 101.065 18.8016 102.137 17.6111C103.21 16.3884 104.63 15.777 106.334 15.777C108.038 15.7449 109.3 16.3884 110.12 17.6755ZM109.521 19.6703C108.922 19.0268 108.132 18.7051 107.186 18.7051C106.24 18.7051 105.482 19.0268 104.851 19.6703C104.251 20.3138 103.936 21.1182 103.936 22.0835C103.936 23.0487 104.251 23.8532 104.851 24.4966C105.45 25.1402 106.24 25.4619 107.186 25.4619C108.132 25.4619 108.889 25.1402 109.521 24.4966C110.12 23.8532 110.436 23.0487 110.436 22.0835C110.436 21.1182 110.12 20.3138 109.521 19.6703Z" fill="#212D32"/>
<path d="M116.842 34.4393L121.133 26.2666L115.58 16.1313H119.429L123.058 22.9204L126.308 16.1313H130L120.565 34.4715H116.842V34.4393Z" fill="#212D32"/>
<defs>
<linearGradient id="paint0_linear_75_784" x1="5.51829" y1="10.2178" x2="17.365" y2="5.00691" gradientUnits="userSpaceOnUse">
<stop stop-color="#3742A6"/>
<stop offset="1" stop-color="#5C80D7"/>
</linearGradient>
<linearGradient id="paint1_linear_75_784" x1="17.0782" y1="26.8218" x2="0.373188" y2="34.9283" gradientUnits="userSpaceOnUse">
<stop stop-color="#3742A6"/>
<stop offset="1" stop-color="#5C80D7"/>
</linearGradient>
<linearGradient id="paint2_linear_75_784" x1="7.88485" y1="23.8893" x2="-0.045005" y2="10.5207" gradientUnits="userSpaceOnUse">
<stop stop-color="#EC7F00"/>
<stop offset="1" stop-color="#FFC700"/>
</linearGradient>
</defs>
</svg>
